<svg xmlns="http://www.w3.org/2000/svg" height="40" viewBox="0 -960 960 960" width="40"><path d="M480-406.247q-48.522 0-81.674-34.463-33.152-34.463-33.152-83.696v-245.978q0-47.434 33.493-80.797t81.341-33.363q47.847 0 81.412 33.363 33.565 33.363 33.565 80.797v245.978q0 49.233-33.232 83.696-33.231 34.463-81.753 34.463Zm-36.282 298.443v-132.464q-108.921-12.478-181.501-93.55-72.579-81.072-72.579-190.588h72.804q0 90.007 63.611 152.116 63.611 62.109 153.862 62.109 90.252 0 153.948-62.143 63.695-62.143 63.695-152.082h72.804q0 109.573-72.579 190.616-72.58 81.044-181.501 93.506v132.48h-72.564Z"/></svg>